<svg xmlns="http://www.w3.org/2000/svg" xmlns:xlink="http://www.w3.org/1999/xlink" fill="none" version="1.1" width="24" height="24" viewBox="0 0 24 24"><g><g style="opacity:0;"><g><rect x="0" y="0" width="24" height="24" rx="2" fill="#EBEBEB" fill-opacity="1"/></g></g><g><path d="M16.8456011,7.89986438C17.05146,7.69400793,17.05146,7.36024877,16.8456011,7.15439232C16.639743799999998,6.948535882,16.305981600000003,6.948535882,16.1001244,7.15439232L11.999960399999999,11.2545257L7.89987653,7.15447193C7.69401777,6.948615436,7.36025685,6.948615436,7.1543981,7.15447193C6.948540337,7.36032844,6.948540337,7.69408745,7.1543981,7.89994395L11.2544827,11.9999976L7.15439306,16.100056600000002C6.948535308,16.305913,6.948535308,16.6396713,7.15439306,16.8455276C7.36025083,17.051384,7.6940127,17.051385,7.89987046,16.8455286L11.9999599,12.7454696L16.1001301,16.8456087C16.3059874,17.051465,16.6397486,17.051465,16.8456068,16.8456087C17.051464,16.6397524,17.051465,16.305993100000002,16.8456078,16.1001368L12.745437599999999,11.9999971L16.8456011,7.89986438Z" fill-rule="evenodd" fill="#BDBDBD" fill-opacity="1"/></g></g></svg>