<?xml version="1.0" standalone="no"?><!DOCTYPE svg PUBLIC "-//W3C//DTD SVG 1.1//EN" "http://www.w3.org/Graphics/SVG/1.1/DTD/svg11.dtd"><svg t="1768529205622" class="icon" viewBox="0 0 1024 1024" version="1.1" xmlns="http://www.w3.org/2000/svg" p-id="3815" xmlns:xlink="http://www.w3.org/1999/xlink" width="16" height="16"><path d="M848.457143 212.114286H694.857143v-58.514286a7.314286 7.314286 0 0 0-7.314286-7.314286h-51.2a7.314286 7.314286 0 0 0-7.314286 7.314286v58.514286H394.971429v-58.514286a7.314286 7.314286 0 0 0-7.314286-7.314286h-51.2a7.314286 7.314286 0 0 0-7.314286 7.314286v58.514286H175.542857a29.257143 29.257143 0 0 0-29.257143 29.257143v607.085714a29.257143 29.257143 0 0 0 29.257143 29.257143h672.914286a29.257143 29.257143 0 0 0 29.257143-29.257143V241.371429a29.257143 29.257143 0 0 0-29.257143-29.257143z m-36.571429 599.771428H212.114286V464.457143h599.771428v347.428571zM212.114286 402.285714V277.942857h117.028571v43.885714a7.314286 7.314286 0 0 0 7.314286 7.314286h51.2a7.314286 7.314286 0 0 0 7.314286-7.314286v-43.885714h234.057142v43.885714a7.314286 7.314286 0 0 0 7.314286 7.314286h51.2a7.314286 7.314286 0 0 0 7.314286-7.314286v-43.885714h117.028571v124.342857H212.114286z" fill-opacity=".65" p-id="3816" fill="#0066FF"></path></svg>