<?xml version="1.0" standalone="no"?><!DOCTYPE svg PUBLIC "-//W3C//DTD SVG 1.1//EN" "http://www.w3.org/Graphics/SVG/1.1/DTD/svg11.dtd"><svg t="1768529398760" class="icon" viewBox="0 0 1024 1024" version="1.1" xmlns="http://www.w3.org/2000/svg" p-id="4841" xmlns:xlink="http://www.w3.org/1999/xlink" width="16" height="16"><path d="M512 146.285714a365.714286 365.714286 0 1 1 0 731.428572A365.714286 365.714286 0 0 1 512 146.285714z m0 62.025143a303.689143 303.689143 0 1 0 0.073143 607.451429A303.689143 303.689143 0 0 0 512 208.310857z m0 450.56a32.621714 32.621714 0 1 1 0 65.389714 32.621714 32.621714 0 0 1 0-65.316571z m0-339.529143c34.304 0 66.56 11.702857 91.136 33.206857 25.453714 22.308571 39.497143 52.297143 39.424 84.333715 0 47.177143-31.158857 89.673143-79.286857 108.178285a39.497143 39.497143 0 0 0-25.234286 36.571429v18.505143c0 3.657143-2.925714 6.582857-6.582857 6.582857h-39.131429a6.582857 6.582857 0 0 1-6.582857-6.582857v-17.554286a91.209143 91.209143 0 0 1 58.806857-86.308571c27.794286-10.752 45.787429-34.011429 45.787429-59.392 0-35.986286-35.108571-65.316571-78.336-65.316572-43.154286 0-78.336 29.330286-78.336 65.316572v6.217143c0 3.657143-2.925714 6.582857-6.582857 6.582857h-39.131429a6.582857 6.582857 0 0 1-6.582857-6.582857v-6.217143c0-32.036571 14.043429-62.025143 39.497143-84.333715A138.020571 138.020571 0 0 1 512 319.341714z" fill-opacity=".65" p-id="4842" fill="#2982FF"></path></svg>