<?xml version="1.0" standalone="no"?><!DOCTYPE svg PUBLIC "-//W3C//DTD SVG 1.1//EN" "http://www.w3.org/Graphics/SVG/1.1/DTD/svg11.dtd"><svg t="1768529090005" class="icon" viewBox="0 0 1024 1024" version="1.1" xmlns="http://www.w3.org/2000/svg" p-id="3126" xmlns:xlink="http://www.w3.org/1999/xlink" width="16" height="16"><path d="M875.52 825.124571L638.098286 587.702857A271.798857 271.798857 0 0 0 694.857143 420.571429a272.676571 272.676571 0 0 0-80.384-193.901715A272.237714 272.237714 0 0 0 420.571429 146.285714a272.676571 272.676571 0 0 0-193.901715 80.384A272.091429 272.091429 0 0 0 146.285714 420.571429c0 73.216 28.598857 142.189714 80.384 193.901714A272.091429 272.091429 0 0 0 420.571429 694.857143a272.091429 272.091429 0 0 0 167.058285-56.685714l237.421715 237.348571c2.925714 2.925714 7.68 2.925714 10.605714 0l39.862857-39.789714a7.533714 7.533714 0 0 0 0-10.605715zM565.394286 565.394286c-38.765714 38.692571-90.185143 59.977143-144.822857 59.977143-54.637714 0-106.057143-21.284571-144.822858-59.977143a203.702857 203.702857 0 0 1-59.977142-144.822857c0-54.637714 21.284571-106.130286 59.977142-144.822858a203.702857 203.702857 0 0 1 144.822858-59.977142c54.637714 0 106.130286 21.211429 144.822857 59.977142 38.692571 38.765714 59.977143 90.185143 59.977143 144.822858 0 54.637714-21.284571 106.130286-59.977143 144.822857z" fill="#2982FF" fill-opacity=".65" p-id="3127"></path></svg>