<?xml version="1.0" standalone="no"?><!DOCTYPE svg PUBLIC "-//W3C//DTD SVG 1.1//EN" "http://www.w3.org/Graphics/SVG/1.1/DTD/svg11.dtd"><svg t="1768529349852" class="icon" viewBox="0 0 1024 1024" version="1.1" xmlns="http://www.w3.org/2000/svg" p-id="4400" xmlns:xlink="http://www.w3.org/1999/xlink" width="16" height="16"><path d="M512 146.285714a365.714286 365.714286 0 1 1 0 731.428572A365.714286 365.714286 0 0 1 512 146.285714z m0 62.025143a303.689143 303.689143 0 1 0 0.073143 607.451429A303.689143 303.689143 0 0 0 512 208.310857z m0 408.137143A39.204571 39.204571 0 1 1 512 694.857143a39.204571 39.204571 0 0 1 0-78.336zM531.602286 329.142857c3.584 0 6.582857 2.925714 6.582857 6.582857v221.988572c0 3.657143-2.998857 6.582857-6.582857 6.582857h-39.204572a6.582857 6.582857 0 0 1-6.582857-6.582857V335.652571c0-3.584 2.998857-6.509714 6.582857-6.509714z" fill="#7AB4FF" fill-opacity=".65" p-id="4401"></path></svg>